# xmcd
#
# Track frame offsets:
#	182
#	24179
#	42530
#	60065
#	78865
#	99382
#	113257
#	134190
#	148545
#	162427
#	178215
#	192642
#	206365
#	219493
#	238963
#
# Disc length: 3413 seconds
#
# Revision: 0
# Processed by: cddbd v1.5.2PL0 Copyright (c) Steve Scherf et al.
# Submitted via: EasyCDDAExtractor 10.2.0.1
#
DISCID=d00d530f
DTITLE=Boney M. - Ten Thousand Lightyears(Remastered)
DYEAR=2007
DGENRE=Disco
TTITLE0=Exodus (Noah's Ark 2001)
TTITLE1=Wild Planet
TTITLE2=Future World
TTITLE3=Where Did You Go
TTITLE4=10,000 Light Years
TTITLE5=I Feel Good
TTITLE6=Somewhere in the World
TTITLE7=Bel Ami
TTITLE8=Living Like a Moviestar
TTITLE9=Dizzy
TTITLE10=The Alibama
TTITLE11=Jimmy
TTITLE12=Barbarella Fortuneteller
TTITLE13=The carnival is over (goodbye true lover)
TTITLE14=(Ineed a) babysitter
EXTD=
EXTT0=
EXTT1=
EXTT2=
EXTT3=
EXTT4=
EXTT5=
EXTT6=
EXTT7=
EXTT8=
EXTT9=
EXTT10=
EXTT11=
EXTT12=
EXTT13=
EXTT14=
PLAYORDER=
